<mxfile host="app.diagrams.net" agent="Mozilla/5.0 (Windows NT 10.0; Win64; x64) AppleWebKit/537.36 (KHTML, like Gecko) Chrome/137.0.0.0 Safari/537.36" version="27.1.5">
  <diagram name="Page-1" id="s8LEhiDZESO9VMyCs4VE">
    <mxGraphModel dx="688" dy="663" grid="1" gridSize="10" guides="1" tooltips="1" connect="1" arrows="1" fold="1" page="1" pageScale="1" pageWidth="827" pageHeight="1169" math="0" shadow="0">
      <root>
        <mxCell id="0" />
        <mxCell id="1" parent="0" />
        <mxCell id="bBSkwI1x8TKcbj0gCfr3-3" value="" style="edgeStyle=orthogonalEdgeStyle;rounded=0;orthogonalLoop=1;jettySize=auto;html=1;" edge="1" parent="1" source="bBSkwI1x8TKcbj0gCfr3-1" target="bBSkwI1x8TKcbj0gCfr3-2">
          <mxGeometry relative="1" as="geometry" />
        </mxCell>
        <mxCell id="bBSkwI1x8TKcbj0gCfr3-1" value="" style="rounded=1;whiteSpace=wrap;html=1;fillColor=#fad7ac;strokeColor=#b46504;" vertex="1" parent="1">
          <mxGeometry x="10" y="300" width="90" height="60" as="geometry" />
        </mxCell>
        <mxCell id="bBSkwI1x8TKcbj0gCfr3-2" value="&lt;h1&gt;&lt;font face=&quot;Times New Roman&quot;&gt;Workmate Mobile App&lt;/font&gt;&lt;/h1&gt;&lt;div&gt;&lt;font face=&quot;Times New Roman&quot;&gt;&lt;br&gt;&lt;/font&gt;&lt;/div&gt;&lt;div&gt;&lt;font face=&quot;Times New Roman&quot;&gt;&lt;br&gt;&lt;/font&gt;&lt;/div&gt;&lt;div&gt;&lt;font face=&quot;Times New Roman&quot;&gt;&lt;br&gt;&lt;/font&gt;&lt;/div&gt;&lt;div&gt;&lt;font face=&quot;Times New Roman&quot;&gt;&lt;br&gt;&lt;/font&gt;&lt;/div&gt;&lt;div&gt;&lt;font face=&quot;Times New Roman&quot;&gt;&lt;br&gt;&lt;/font&gt;&lt;/div&gt;&lt;div&gt;&lt;font face=&quot;Times New Roman&quot;&gt;&lt;br&gt;&lt;/font&gt;&lt;/div&gt;&lt;div&gt;&lt;font face=&quot;Times New Roman&quot;&gt;&lt;br&gt;&lt;/font&gt;&lt;/div&gt;&lt;div&gt;&lt;font face=&quot;Times New Roman&quot;&gt;&lt;br&gt;&lt;/font&gt;&lt;/div&gt;&lt;div&gt;&lt;font face=&quot;Times New Roman&quot;&gt;&lt;br&gt;&lt;/font&gt;&lt;/div&gt;&lt;div&gt;&lt;font face=&quot;Times New Roman&quot;&gt;&lt;br&gt;&lt;/font&gt;&lt;/div&gt;&lt;div&gt;&lt;font face=&quot;Times New Roman&quot;&gt;&lt;br&gt;&lt;/font&gt;&lt;/div&gt;&lt;div&gt;&lt;font face=&quot;Times New Roman&quot;&gt;&lt;br&gt;&lt;/font&gt;&lt;/div&gt;&lt;div&gt;&lt;font face=&quot;Times New Roman&quot;&gt;&lt;br&gt;&lt;/font&gt;&lt;/div&gt;&lt;div&gt;&lt;font face=&quot;Times New Roman&quot;&gt;&lt;br&gt;&lt;/font&gt;&lt;/div&gt;&lt;div&gt;&lt;font face=&quot;Times New Roman&quot;&gt;&lt;br&gt;&lt;/font&gt;&lt;/div&gt;&lt;div&gt;&lt;font face=&quot;Times New Roman&quot;&gt;&lt;br&gt;&lt;/font&gt;&lt;/div&gt;&lt;div&gt;&lt;font face=&quot;Times New Roman&quot;&gt;&lt;br&gt;&lt;/font&gt;&lt;/div&gt;&lt;div&gt;&lt;font face=&quot;Times New Roman&quot;&gt;&lt;br&gt;&lt;/font&gt;&lt;/div&gt;&lt;div&gt;&lt;font face=&quot;Times New Roman&quot;&gt;&lt;br&gt;&lt;/font&gt;&lt;/div&gt;&lt;div&gt;&lt;font face=&quot;Times New Roman&quot;&gt;&lt;br&gt;&lt;/font&gt;&lt;/div&gt;&lt;div&gt;&lt;font face=&quot;Times New Roman&quot;&gt;&lt;br&gt;&lt;/font&gt;&lt;/div&gt;&lt;div&gt;&lt;font face=&quot;Times New Roman&quot;&gt;&lt;br&gt;&lt;/font&gt;&lt;/div&gt;&lt;div&gt;&lt;font face=&quot;Times New Roman&quot;&gt;&lt;br&gt;&lt;/font&gt;&lt;/div&gt;&lt;div&gt;&lt;font face=&quot;Times New Roman&quot;&gt;&lt;br&gt;&lt;/font&gt;&lt;/div&gt;&lt;div&gt;&lt;font face=&quot;Times New Roman&quot;&gt;&lt;br&gt;&lt;/font&gt;&lt;/div&gt;&lt;div&gt;&lt;font face=&quot;Times New Roman&quot;&gt;&lt;br&gt;&lt;/font&gt;&lt;/div&gt;&lt;div&gt;&lt;font face=&quot;Times New Roman&quot;&gt;&lt;br&gt;&lt;/font&gt;&lt;/div&gt;&lt;div&gt;&lt;font face=&quot;Times New Roman&quot;&gt;&lt;br&gt;&lt;/font&gt;&lt;/div&gt;&lt;div&gt;&lt;font face=&quot;Times New Roman&quot;&gt;&lt;br&gt;&lt;/font&gt;&lt;/div&gt;&lt;div&gt;&lt;font face=&quot;Times New Roman&quot;&gt;&lt;br&gt;&lt;/font&gt;&lt;/div&gt;" style="whiteSpace=wrap;html=1;rounded=1;fillColor=#b0e3e6;strokeColor=#0e8088;" vertex="1" parent="1">
          <mxGeometry x="150" y="80" width="220" height="500" as="geometry" />
        </mxCell>
        <mxCell id="bBSkwI1x8TKcbj0gCfr3-18" value="" style="edgeStyle=orthogonalEdgeStyle;rounded=0;orthogonalLoop=1;jettySize=auto;html=1;" edge="1" parent="1" source="bBSkwI1x8TKcbj0gCfr3-4" target="bBSkwI1x8TKcbj0gCfr3-17">
          <mxGeometry relative="1" as="geometry" />
        </mxCell>
        <mxCell id="bBSkwI1x8TKcbj0gCfr3-35" style="edgeStyle=orthogonalEdgeStyle;rounded=0;orthogonalLoop=1;jettySize=auto;html=1;" edge="1" parent="1" source="bBSkwI1x8TKcbj0gCfr3-4" target="bBSkwI1x8TKcbj0gCfr3-6">
          <mxGeometry relative="1" as="geometry" />
        </mxCell>
        <mxCell id="bBSkwI1x8TKcbj0gCfr3-4" value="Local Storage" style="rounded=1;whiteSpace=wrap;html=1;" vertex="1" parent="1">
          <mxGeometry x="180" y="150" width="160" height="70" as="geometry" />
        </mxCell>
        <mxCell id="bBSkwI1x8TKcbj0gCfr3-21" value="" style="edgeStyle=orthogonalEdgeStyle;rounded=0;orthogonalLoop=1;jettySize=auto;html=1;" edge="1" parent="1" source="bBSkwI1x8TKcbj0gCfr3-5" target="bBSkwI1x8TKcbj0gCfr3-20">
          <mxGeometry relative="1" as="geometry" />
        </mxCell>
        <mxCell id="bBSkwI1x8TKcbj0gCfr3-5" value="Output" style="rounded=1;whiteSpace=wrap;html=1;" vertex="1" parent="1">
          <mxGeometry x="180" y="490" width="160" height="70" as="geometry" />
        </mxCell>
        <mxCell id="bBSkwI1x8TKcbj0gCfr3-33" style="edgeStyle=orthogonalEdgeStyle;rounded=0;orthogonalLoop=1;jettySize=auto;html=1;entryX=0.5;entryY=0;entryDx=0;entryDy=0;" edge="1" parent="1" source="bBSkwI1x8TKcbj0gCfr3-6" target="bBSkwI1x8TKcbj0gCfr3-5">
          <mxGeometry relative="1" as="geometry" />
        </mxCell>
        <mxCell id="bBSkwI1x8TKcbj0gCfr3-6" value="Model&lt;div&gt;(Offline)&lt;/div&gt;&lt;div&gt;&lt;br&gt;&lt;/div&gt;&lt;div&gt;&lt;br&gt;&lt;/div&gt;&lt;div&gt;&lt;br&gt;&lt;/div&gt;&lt;div&gt;&lt;br&gt;&lt;/div&gt;&lt;div&gt;&lt;br&gt;&lt;/div&gt;&lt;div&gt;&lt;br&gt;&lt;/div&gt;" style="rounded=1;whiteSpace=wrap;html=1;" vertex="1" parent="1">
          <mxGeometry x="200" y="260" width="120" height="160" as="geometry" />
        </mxCell>
        <mxCell id="bBSkwI1x8TKcbj0gCfr3-15" style="edgeStyle=orthogonalEdgeStyle;rounded=0;orthogonalLoop=1;jettySize=auto;html=1;exitX=0.5;exitY=1;exitDx=0;exitDy=0;" edge="1" parent="1" source="bBSkwI1x8TKcbj0gCfr3-1" target="bBSkwI1x8TKcbj0gCfr3-1">
          <mxGeometry relative="1" as="geometry" />
        </mxCell>
        <mxCell id="bBSkwI1x8TKcbj0gCfr3-25" style="edgeStyle=orthogonalEdgeStyle;rounded=0;orthogonalLoop=1;jettySize=auto;html=1;entryX=0.5;entryY=0;entryDx=0;entryDy=0;" edge="1" parent="1" source="bBSkwI1x8TKcbj0gCfr3-17" target="bBSkwI1x8TKcbj0gCfr3-20">
          <mxGeometry relative="1" as="geometry" />
        </mxCell>
        <mxCell id="bBSkwI1x8TKcbj0gCfr3-17" value="Online Sync&lt;div&gt;&lt;br&gt;&lt;/div&gt;&lt;div&gt;&lt;br&gt;&lt;/div&gt;" style="whiteSpace=wrap;html=1;rounded=1;fillColor=#fad7ac;strokeColor=#b46504;" vertex="1" parent="1">
          <mxGeometry x="440" y="160" width="120" height="60" as="geometry" />
        </mxCell>
        <mxCell id="bBSkwI1x8TKcbj0gCfr3-37" value="" style="edgeStyle=orthogonalEdgeStyle;rounded=0;orthogonalLoop=1;jettySize=auto;html=1;" edge="1" parent="1" source="bBSkwI1x8TKcbj0gCfr3-20" target="bBSkwI1x8TKcbj0gCfr3-36">
          <mxGeometry relative="1" as="geometry" />
        </mxCell>
        <mxCell id="bBSkwI1x8TKcbj0gCfr3-20" value="Backend&lt;div&gt;&lt;br&gt;&lt;/div&gt;&lt;div&gt;&lt;br&gt;&lt;/div&gt;&lt;div&gt;&lt;br&gt;&lt;/div&gt;" style="whiteSpace=wrap;html=1;rounded=1;fillColor=#fad7ac;strokeColor=#b46504;" vertex="1" parent="1">
          <mxGeometry x="440" y="480" width="120" height="60" as="geometry" />
        </mxCell>
        <mxCell id="bBSkwI1x8TKcbj0gCfr3-29" value="Receive" style="text;html=1;align=center;verticalAlign=middle;whiteSpace=wrap;rounded=0;" vertex="1" parent="1">
          <mxGeometry x="501.5" y="325" width="60" height="30" as="geometry" />
        </mxCell>
        <mxCell id="bBSkwI1x8TKcbj0gCfr3-30" value="Sync" style="text;html=1;align=center;verticalAlign=middle;whiteSpace=wrap;rounded=0;" vertex="1" parent="1">
          <mxGeometry x="354" y="190" width="60" height="30" as="geometry" />
        </mxCell>
        <mxCell id="bBSkwI1x8TKcbj0gCfr3-31" value="Store" style="text;html=1;align=center;verticalAlign=middle;whiteSpace=wrap;rounded=0;" vertex="1" parent="1">
          <mxGeometry x="250" y="220" width="60" height="30" as="geometry" />
        </mxCell>
        <mxCell id="bBSkwI1x8TKcbj0gCfr3-32" value="Inference" style="text;html=1;align=center;verticalAlign=middle;whiteSpace=wrap;rounded=0;" vertex="1" parent="1">
          <mxGeometry x="260" y="440" width="60" height="30" as="geometry" />
        </mxCell>
        <mxCell id="bBSkwI1x8TKcbj0gCfr3-36" value="" style="whiteSpace=wrap;html=1;fillColor=#b0e3e6;strokeColor=#0e8088;rounded=1;" vertex="1" parent="1">
          <mxGeometry x="650" y="220" width="120" height="260" as="geometry" />
        </mxCell>
        <mxCell id="bBSkwI1x8TKcbj0gCfr3-39" value="Cloud" style="text;html=1;align=center;verticalAlign=middle;whiteSpace=wrap;rounded=0;" vertex="1" parent="1">
          <mxGeometry x="680" y="220" width="60" height="30" as="geometry" />
        </mxCell>
        <mxCell id="bBSkwI1x8TKcbj0gCfr3-41" value="" style="image;aspect=fixed;html=1;points=[];align=center;fontSize=12;image=img/lib/azure2/storage/Azure_Stack_Edge.svg;" vertex="1" parent="1">
          <mxGeometry x="448" y="188.94" width="44" height="31.06" as="geometry" />
        </mxCell>
        <mxCell id="bBSkwI1x8TKcbj0gCfr3-43" value="" style="shape=mxgraph.cisco.computers_and_peripherals.pc;sketch=0;html=1;pointerEvents=1;dashed=0;fillColor=#036897;strokeColor=#ffffff;strokeWidth=2;verticalLabelPosition=bottom;verticalAlign=top;align=center;outlineConnect=0;" vertex="1" parent="1">
          <mxGeometry x="450" y="500" width="42" height="40" as="geometry" />
        </mxCell>
        <mxCell id="bBSkwI1x8TKcbj0gCfr3-44" value="" style="shape=mxgraph.cisco.computers_and_peripherals.ibm_mini_as400;sketch=0;html=1;pointerEvents=1;dashed=0;fillColor=#036897;strokeColor=#ffffff;strokeWidth=2;verticalLabelPosition=bottom;verticalAlign=top;align=center;outlineConnect=0;" vertex="1" parent="1">
          <mxGeometry x="510" y="500" width="23" height="32" as="geometry" />
        </mxCell>
        <mxCell id="bBSkwI1x8TKcbj0gCfr3-45" value="" style="image;aspect=fixed;perimeter=ellipsePerimeter;html=1;align=center;shadow=0;dashed=0;fontColor=#4277BB;labelBackgroundColor=default;fontSize=12;spacingTop=3;image=img/lib/ibm/management/data_services.svg;" vertex="1" parent="1">
          <mxGeometry x="680" y="250" width="60" height="60" as="geometry" />
        </mxCell>
        <mxCell id="bBSkwI1x8TKcbj0gCfr3-46" value="" style="verticalLabelPosition=bottom;verticalAlign=top;html=1;shape=mxgraph.basic.donut;dx=10;strokeColor=none;fillColor=#10739E;fontSize=10;align=center;fillOpacity=20;" vertex="1" parent="1">
          <mxGeometry x="720" y="320" width="40" height="40" as="geometry" />
        </mxCell>
        <mxCell id="bBSkwI1x8TKcbj0gCfr3-47" value="65%" style="verticalLabelPosition=middle;verticalAlign=middle;html=1;shape=mxgraph.basic.partConcEllipse;startAngle=0;endAngle=0.65;arcWidth=0.2;strokeColor=none;fillColor=#10739E;fontSize=22;fontColor=#10739E;align=center;fontStyle=1;whiteSpace=wrap;" vertex="1" parent="bBSkwI1x8TKcbj0gCfr3-46">
          <mxGeometry width="40" height="40" as="geometry" />
        </mxCell>
        <mxCell id="bBSkwI1x8TKcbj0gCfr3-48" value="" style="image;aspect=fixed;perimeter=ellipsePerimeter;html=1;align=center;shadow=0;dashed=0;fontColor=#4277BB;labelBackgroundColor=default;fontSize=12;spacingTop=3;image=img/lib/ibm/security/vpn.svg;" vertex="1" parent="1">
          <mxGeometry x="210" y="325" width="30" height="30" as="geometry" />
        </mxCell>
        <mxCell id="bBSkwI1x8TKcbj0gCfr3-49" value="" style="image;aspect=fixed;perimeter=ellipsePerimeter;html=1;align=center;shadow=0;dashed=0;fontColor=#4277BB;labelBackgroundColor=default;fontSize=12;spacingTop=3;image=img/lib/ibm/management/device_management.svg;" vertex="1" parent="1">
          <mxGeometry x="270" y="320" width="40" height="40" as="geometry" />
        </mxCell>
        <mxCell id="bBSkwI1x8TKcbj0gCfr3-50" value="" style="image;aspect=fixed;perimeter=ellipsePerimeter;html=1;align=center;shadow=0;dashed=0;fontColor=#4277BB;labelBackgroundColor=default;fontSize=12;spacingTop=3;image=img/lib/ibm/management/device_management.svg;" vertex="1" parent="1">
          <mxGeometry x="660" y="320" width="40" height="40" as="geometry" />
        </mxCell>
        <mxCell id="bBSkwI1x8TKcbj0gCfr3-51" value="" style="image;aspect=fixed;perimeter=ellipsePerimeter;html=1;align=center;shadow=0;dashed=0;fontColor=#4277BB;labelBackgroundColor=default;fontSize=12;spacingTop=3;image=img/lib/ibm/management/provider_cloud_portal_service.svg;" vertex="1" parent="1">
          <mxGeometry x="680" y="400" width="60" height="60" as="geometry" />
        </mxCell>
        <mxCell id="bBSkwI1x8TKcbj0gCfr3-52" value="Model Server" style="text;html=1;align=center;verticalAlign=middle;whiteSpace=wrap;rounded=0;" vertex="1" parent="1">
          <mxGeometry x="665" y="450" width="90" height="30" as="geometry" />
        </mxCell>
        <mxCell id="bBSkwI1x8TKcbj0gCfr3-53" value="Input" style="text;html=1;align=center;verticalAlign=middle;whiteSpace=wrap;rounded=0;" vertex="1" parent="1">
          <mxGeometry x="90" y="310" width="60" height="30" as="geometry" />
        </mxCell>
        <mxCell id="bBSkwI1x8TKcbj0gCfr3-54" value="" style="image;aspect=fixed;html=1;points=[];align=center;fontSize=12;image=img/lib/azure2/iot/Time_Series_Data_Sets.svg;" vertex="1" parent="1">
          <mxGeometry x="223.8" y="370" width="26.2" height="34.8" as="geometry" />
        </mxCell>
        <mxCell id="bBSkwI1x8TKcbj0gCfr3-55" value="" style="image;aspect=fixed;html=1;points=[];align=center;fontSize=12;image=img/lib/azure2/iot/IoT_Edge.svg;" vertex="1" parent="1">
          <mxGeometry x="501.5" y="184.47" width="40" height="40" as="geometry" />
        </mxCell>
        <mxCell id="bBSkwI1x8TKcbj0gCfr3-56" value="" style="image;aspect=fixed;html=1;points=[];align=center;fontSize=12;image=img/lib/azure2/databases/Oracle_Database.svg;" vertex="1" parent="1">
          <mxGeometry x="260" y="370" width="38" height="38" as="geometry" />
        </mxCell>
        <mxCell id="bBSkwI1x8TKcbj0gCfr3-57" value="" style="image;aspect=fixed;html=1;points=[];align=center;fontSize=12;image=img/lib/azure2/iot/Time_Series_Insights_Event_Sources.svg;" vertex="1" parent="1">
          <mxGeometry x="280.73" y="505.08" width="39.27" height="39.85" as="geometry" />
        </mxCell>
        <mxCell id="bBSkwI1x8TKcbj0gCfr3-58" value="" style="image;aspect=fixed;html=1;points=[];align=center;fontSize=12;image=img/lib/azure2/azure_stack/Azure_Stack.svg;" vertex="1" parent="1">
          <mxGeometry x="180" y="166.48000000000002" width="35.88" height="37.03" as="geometry" />
        </mxCell>
        <mxCell id="bBSkwI1x8TKcbj0gCfr3-59" value="" style="image;aspect=fixed;html=1;points=[];align=center;fontSize=12;image=img/lib/azure2/ai_machine_learning/Personalizers.svg;" vertex="1" parent="1">
          <mxGeometry x="50" y="325" width="40" height="32.47" as="geometry" />
        </mxCell>
        <mxCell id="bBSkwI1x8TKcbj0gCfr3-60" value="Field Team" style="text;html=1;align=center;verticalAlign=middle;whiteSpace=wrap;rounded=0;" vertex="1" parent="1">
          <mxGeometry x="25" y="300" width="60" height="30" as="geometry" />
        </mxCell>
      </root>
    </mxGraphModel>
  </diagram>
</mxfile>
